<svg width="208" height="72" viewBox="0 0 208 72" fill="none" xmlns="http://www.w3.org/2000/svg">
<rect width="208" height="72" fill="#1E1E1E"/>
<path d="M200 11.9C200 11.4 200.2 10.95 200.6 10.55L202 9.15V6H198.85L197.45 7.4C197.05 7.8 196.6 8 196.1 8H195.9C195.4 8 194.967 7.8 194.6 7.4L192.6 5.4C192.2 5.03333 192 4.56667 192 4V2C192 1.43333 192.2 0.95 192.6 0.55C192.967 0.183333 193.433 0 194 0H206C206.567 0 207.05 0.183333 207.45 0.55C207.817 0.95 208 1.43333 208 2V14C208 14.5667 207.817 15.0333 207.45 15.4C207.05 15.8 206.567 16 206 16H204C203.433 16 202.967 15.8 202.6 15.4L200.6 13.4C200.2 13.0333 200 12.6 200 12.1V11.9ZM198 2H194V4L196 6L198 4H202L204 6V10L202 12L204 14H206V10V2H198ZM200 59.4C200 58.9 200.2 58.4666 200.6 58.1L202.6 56.1C202.967 55.7 203.433 55.5 204 55.5H206C206.567 55.5 207.05 55.7 207.45 56.1C207.817 56.4666 208 56.9333 208 57.5V69.5C208 70.0666 207.817 70.55 207.45 70.95C207.05 71.3166 206.567 71.5 206 71.5H194C193.433 71.5 192.967 71.3166 192.6 70.95C192.2 70.55 192 70.0666 192 69.5V67.5C192 66.9333 192.2 66.4666 192.6 66.1L194.6 64.1C194.967 63.7 195.4 63.5 195.9 63.5H196.1C196.6 63.5 197.05 63.7 197.45 64.1L198.85 65.5H202V62.35L200.6 60.95C200.2 60.55 200 60.1 200 59.6V59.4ZM206 61.5V57.5H204L202 59.5L204 61.5V65.5L202 67.5H198L196 65.5L194 67.5V69.5H198H206V61.5ZM2 16C1.43333 16 0.95 15.8 0.55 15.4C0.183334 15.0334 0 14.5667 0 14V2.00003C0 1.43336 0.183334 0.950031 0.55 0.550031C0.95 0.183364 1.43333 3.05176e-05 2 3.05176e-05H14C14.5667 3.05176e-05 15.0333 0.183364 15.4 0.550031C15.8 0.950031 16 1.43336 16 2.00003V4.00003C16 4.5667 15.8 5.03336 15.4 5.40003L13.4 7.40003C13.0333 7.80003 12.6 8.00003 12.1 8.00003H11.9C11.4 8.00003 10.95 7.80003 10.55 7.40003L9.15 6.00003H6V9.15003L7.4 10.55C7.8 10.95 8 11.4 8 11.9V12.1C8 12.6 7.8 13.0334 7.4 13.4L5.4 15.4C5.03333 15.8 4.56667 16 4 16H2ZM10 4.00003L12 6.00003L14 4.00003V2.00003H10H2V10V14H4L6 12L4 10V6.00003L6 4.00003H10ZM4 55.5C4.56667 55.5 5.03333 55.7 5.4 56.1L7.4 58.1C7.8 58.4667 8 58.9 8 59.4V59.6C8 60.1 7.8 60.55 7.4 60.95L6 62.35V65.5H9.15L10.55 64.1C10.95 63.7 11.4 63.5 11.9 63.5H12.1C12.6 63.5 13.0333 63.7 13.4 64.1L15.4 66.1C15.8 66.4667 16 66.9333 16 67.5V69.5C16 70.0667 15.8 70.55 15.4 70.95C15.0333 71.3167 14.5667 71.5 14 71.5H2C1.43333 71.5 0.95 71.3167 0.55 70.95C0.183333 70.55 0 70.0667 0 69.5V57.5C0 56.9333 0.183333 56.4667 0.55 56.1C0.95 55.7 1.43333 55.5 2 55.5H4ZM4 61.5L6 59.5L4 57.5H2V61.5V69.5H10H14V67.5L12 65.5L10 67.5H6L4 65.5V61.5Z" fill="#515F6B"/>
<path d="M196.1 8C196.6 8 197.05 7.8 197.45 7.4L198.85 6H202V9.15L200.6 10.55C200.2 10.95 200 11.4 200 11.9V8H196.1ZM200 12.1C200 12.6 200.2 13.0333 200.6 13.4L202.6 15.4C202.967 15.8 203.433 16 204 16V55.5C203.433 55.5 202.967 55.7 202.6 56.1L200.6 58.1C200.2 58.4666 200 58.9 200 59.4V12.1ZM192 4C192 4.56667 192.2 5.03333 192.6 5.4L194.6 7.4C194.967 7.8 195.4 8 195.9 8L12.1 8.00003C12.6 8.00003 13.0333 7.80003 13.4 7.40003L15.4 5.40003C15.8 5.03336 16 4.5667 16 4.00003L192 4ZM200 59.6C200 60.1 200.2 60.55 200.6 60.95L202 62.35V65.5H198.85L197.45 64.1C197.05 63.7 196.6 63.5 196.1 63.5H200V59.6ZM195.9 63.5C195.4 63.5 194.967 63.7 194.6 64.1L192.6 66.1C192.2 66.4666 192 66.9333 192 67.5L16 67.5C16 66.9333 15.8 66.4667 15.4 66.1L13.4 64.1C13.0333 63.7 12.6 63.5 12.1 63.5L195.9 63.5ZM8 11.9C8 11.4 7.8 10.95 7.4 10.55L6 9.15003V6.00003H9.15L10.55 7.40003C10.95 7.80003 11.4 8.00003 11.9 8.00003H8V11.9ZM4 16C4.56667 16 5.03333 15.8 5.4 15.4L7.4 13.4C7.8 13.0334 8 12.6 8 12.1V59.4C8 58.9 7.8 58.4667 7.4 58.1L5.4 56.1C5.03333 55.7 4.56667 55.5 4 55.5V16ZM11.9 63.5C11.4 63.5 10.95 63.7 10.55 64.1L9.15 65.5H6V62.35L7.4 60.95C7.8 60.55 8 60.1 8 59.6V63.5H11.9Z" fill="#B47B41"/>
<path d="M198 2V4L196 6L194 4V2H198ZM204 10H206V14H204L202 12L204 10ZM204 61.5L202 59.5L204 57.5H206V61.5H204ZM198 69.5H194V67.5L196 65.5L198 67.5V69.5ZM10 2.00003H14V4.00003L12 6.00003L10 4.00003V2.00003ZM4 10L6 12L4 14H2V10H4ZM2 61.5V57.5H4L6 59.5L4 61.5H2ZM10 67.5L12 65.5L14 67.5V69.5H10V67.5Z" fill="#778D9F"/>
<path d="M10 67.5V69.5H2V61.5H4V65.5L6 67.5H10ZM198 4V2H206V10H204V6L202 4H198ZM206 61.5V69.5H198V67.5H202L204 65.5V61.5H206ZM10 4.00003H6L4 6.00003V10H2V2.00003H10V4.00003Z" fill="#94AFC6"/>
<path d="M204 16H206V55.5H204V16ZM192 2V4L16 4.00003V2.00003L192 2ZM192 67.5V69.5L16 69.5V67.5L192 67.5ZM4 16V55.5H2V16H4Z" fill="#6D4B27"/>
<path d="M200 11.9V12.1V59.4V59.6V63.5H196.1H195.9L12.1 63.5H11.9H8V59.6V59.4V12.1V11.9V8.00003H11.9H12.1L195.9 8H196.1H200V11.9Z" fill="#A3703A"/>
</svg>
