<svg width="388" height="231" viewBox="0 0 388 231" fill="none" xmlns="http://www.w3.org/2000/svg">
<path d="M378.955 12.7685C378.955 12.3018 379.154 11.8684 379.554 11.4682L380.954 10.0676L380.952 6.91761L377.802 6.919L376.403 8.31961C376.003 8.71979 375.57 8.91998 375.103 8.92019L374.803 8.92032C374.336 8.92053 373.92 8.72071 373.553 8.32087L371.552 6.32175C371.152 5.95526 370.952 5.48868 370.951 4.92202L370.95 2.92202C370.95 2.35535 371.15 1.87193 371.55 1.47175C371.916 1.10492 372.383 0.921385 372.95 0.921136L384.95 0.915848C385.516 0.915598 386 1.09872 386.4 1.46521C386.767 1.86505 386.95 2.3483 386.95 2.91497L386.956 14.915C386.956 15.4816 386.773 15.9484 386.406 16.3152C386.006 16.7154 385.523 16.9156 384.957 16.9158L382.957 16.9167C382.39 16.917 381.923 16.7172 381.556 16.3173L379.555 14.3182C379.155 13.9517 378.955 13.5352 378.955 13.0685L378.955 12.7685ZM376.951 4.91937L380.951 4.91761L382.952 6.91673L382.954 10.9167L380.955 12.9176L382.956 14.9167L384.956 14.9158L384.954 10.9158L384.95 2.91585L376.95 2.91937L372.95 2.92114L372.951 4.92114L374.952 6.92025L376.951 4.91937ZM383.043 213.917L385.043 213.916C385.61 213.916 386.093 214.115 386.494 214.515C386.86 214.882 387.044 215.348 387.044 215.915L387.05 227.915C387.05 228.482 386.867 228.965 386.5 229.365C386.1 229.732 385.617 229.916 385.05 229.916L373.05 229.921C372.484 229.921 372.017 229.738 371.65 229.372C371.25 228.972 371.05 228.489 371.05 227.922L371.049 225.922C371.048 225.355 371.248 224.889 371.648 224.522L373.647 222.521C374.014 222.121 374.43 221.92 374.897 221.92L375.197 221.92C375.664 221.92 376.097 222.12 376.497 222.52L377.898 223.919L381.048 223.918L381.046 220.768L379.646 219.368C379.246 218.968 379.045 218.535 379.045 218.068L379.045 217.768C379.045 217.302 379.245 216.885 379.645 216.518L381.644 214.517C382.01 214.117 382.477 213.917 383.043 213.917ZM385.046 219.916L385.044 215.916L383.044 215.917L381.045 217.918L383.046 219.917L383.048 223.917L381.049 225.918L377.049 225.919L375.048 223.92L373.049 225.921L373.05 227.921L377.05 227.919L385.05 227.916L385.046 219.916ZM17.0496 228.078C17.0498 228.645 16.85 229.128 16.4502 229.528C16.0837 229.895 15.6171 230.079 15.0505 230.079L3.05046 230.084C2.4838 230.084 2.00038 229.901 1.60022 229.535C1.23338 229.135 1.04983 228.652 1.04958 228.085L1.04429 216.085C1.04404 215.518 1.22717 215.052 1.59368 214.685C1.9935 214.285 2.47675 214.084 3.04341 214.084L5.04341 214.083C5.61008 214.083 6.07683 214.283 6.44368 214.683L8.44456 216.682C8.84472 217.048 9.0449 217.465 9.04511 217.932L9.04524 218.231C9.04545 218.698 8.84564 219.132 8.44581 219.532L7.04643 220.932L7.04782 224.082L10.1978 224.081L11.5972 222.68C11.997 222.28 12.4303 222.08 12.8969 222.08L13.1969 222.08C13.6636 222.079 14.0804 222.279 14.4472 222.679L16.4481 224.678C16.8482 225.045 17.0484 225.511 17.0487 226.078L17.0496 228.078ZM2.9566 17.0842C2.38994 17.0844 1.90652 16.8846 1.50634 16.4848C1.13951 16.1183 0.955973 15.6517 0.955723 15.0851L0.950436 3.08506C0.950186 2.51839 1.13331 2.03498 1.4998 1.63481C1.89963 1.26797 2.38289 1.08442 2.94955 1.08418L14.9496 1.07889C15.5162 1.07864 15.983 1.26177 16.3498 1.62827C16.75 2.02809 16.9502 2.51134 16.9504 3.07801L16.9513 5.07801C16.9516 5.64467 16.7518 6.11143 16.3519 6.47827L14.3528 8.47915C13.9863 8.87931 13.5697 9.0795 13.1031 9.0797L12.8031 9.07983C12.3364 9.08004 11.903 8.88023 11.5028 8.48041L10.1022 7.08102L6.9522 7.08241L6.95359 10.2324L8.3542 11.6318C8.75438 12.0316 8.95457 12.4649 8.95478 12.9315L8.95491 13.2315C8.95511 13.6982 8.7553 14.115 8.35546 14.4818L6.35634 16.4827C5.98985 16.8828 5.52327 17.083 4.9566 17.0833L2.9566 17.0842ZM10.9513 5.08065L12.9522 7.07977L14.9513 5.07889L14.9504 3.07889L10.9504 3.08065L2.95044 3.08417L2.95396 11.0842L2.95572 15.0842L4.95572 15.0833L6.95484 13.0824L4.95396 11.0833L4.9522 7.08329L6.95132 5.08241L10.9513 5.08065ZM5.04606 220.083L7.04517 218.082L5.04429 216.083L3.04429 216.084L3.04606 220.084L3.04958 228.084L11.0496 228.081L15.0496 228.079L15.0487 226.079L13.0478 224.08L11.0487 226.081L7.0487 226.082L5.04782 224.083L5.04606 220.083Z" fill="#515F6B"/>
<path d="M375.103 8.92019C375.57 8.91998 376.003 8.71979 376.403 8.31961L377.802 6.919L380.952 6.91761L380.954 10.0676L379.554 11.4682C379.154 11.8684 378.955 12.3018 378.955 12.7685L378.953 8.91849L375.103 8.92019ZM378.955 13.0685C378.955 13.5352 379.155 13.9517 379.555 14.3182L381.556 16.3173C381.923 16.7172 382.39 16.917 382.957 16.9167L380.957 18.9176L382.958 20.9167L383.043 213.917C382.477 213.917 382.01 214.117 381.644 214.517L379.645 216.518C379.245 216.885 379.045 217.302 379.045 217.768L378.955 13.0685ZM370.951 4.92202C370.952 5.48868 371.152 5.95526 371.552 6.32175L373.553 8.32087C373.92 8.72071 374.336 8.92053 374.803 8.92032L13.1031 9.0797C13.5697 9.0795 13.9863 8.87931 14.3528 8.47915L16.3519 6.47827C16.7518 6.11143 16.9516 5.64467 16.9513 5.07801L18.9522 7.07712L20.9513 5.07624L24.9513 5.07448L25.9518 6.07404L26.9513 5.0736L370.951 4.92202ZM379.045 218.068C379.045 218.535 379.246 218.968 379.646 219.368L381.046 220.768L381.048 223.918L377.898 223.919L376.497 222.52C376.097 222.12 375.664 221.92 375.197 221.92L379.047 221.918L379.045 218.068ZM374.897 221.92C374.43 221.92 374.014 222.121 373.647 222.521L371.648 224.522C371.248 224.889 371.048 225.355 371.049 225.922L369.049 225.923L367.048 223.924L365.049 225.925L17.0487 226.078C17.0484 225.511 16.8482 225.045 16.4481 224.678L14.4472 222.679C14.0804 222.279 13.6636 222.079 13.1969 222.08L374.897 221.92ZM8.95478 12.9315C8.95457 12.4649 8.75438 12.0316 8.3542 11.6318L6.95359 10.2324L6.9522 7.08241L10.1022 7.08102L11.5028 8.48041C11.903 8.88023 12.3364 9.08004 12.8031 9.07983L8.95308 9.08153L8.95478 12.9315ZM4.9566 17.0833C5.52327 17.083 5.98985 16.8828 6.35634 16.4827L8.35546 14.4818C8.7553 14.115 8.95511 13.6982 8.95491 13.2315L9.04511 217.932C9.0449 217.465 8.84472 217.048 8.44456 216.682L6.44368 214.683C6.07683 214.283 5.61008 214.083 5.04341 214.083L5.04165 210.083L6.04121 209.083L5.04077 208.083L4.9566 17.0833ZM12.8969 222.08C12.4303 222.08 11.997 222.28 11.5972 222.68L10.1978 224.081L7.04782 224.082L7.04643 220.932L8.44581 219.532C8.84564 219.132 9.04545 218.698 9.04524 218.231L9.04694 222.082L12.8969 222.08Z" fill="#B47B41"/>
<path d="M382.954 10.9167L382.952 6.91673L380.951 4.91761L376.951 4.91937L376.95 2.91937L384.95 2.91585L384.954 10.9158L382.954 10.9167ZM385.046 219.916L385.05 227.916L377.05 227.919L377.049 225.919L381.049 225.918L383.048 223.917L383.046 219.917L385.046 219.916ZM10.9513 5.08065L6.95132 5.08241L4.9522 7.08329L4.95396 11.0833L2.95396 11.0842L2.95044 3.08417L10.9504 3.08065L10.9513 5.08065ZM3.04606 220.084L5.04606 220.083L5.04782 224.083L7.0487 226.082L11.0487 226.081L11.0496 228.081L3.04958 228.084L3.04606 220.084Z" fill="#94AFC6"/>
<path d="M3.04606 220.084L3.04429 216.084L5.04429 216.083L7.04517 218.082L5.04606 220.083L3.04606 220.084ZM382.954 10.9167L384.954 10.9158L384.956 14.9158L382.956 14.9167L380.955 12.9176L382.954 10.9167ZM376.95 2.91937L376.951 4.91937L374.952 6.92025L372.951 4.92114L372.95 2.92114L376.95 2.91937ZM383.046 219.917L381.045 217.918L383.044 215.917L385.044 215.916L385.046 219.916L383.046 219.917ZM377.05 227.919L373.05 227.921L373.049 225.921L375.048 223.92L377.049 225.919L377.05 227.919ZM10.9504 3.08065L14.9504 3.07889L14.9513 5.07889L12.9522 7.07977L10.9513 5.08065L10.9504 3.08065ZM4.95396 11.0833L6.95484 13.0824L4.95572 15.0833L2.95572 15.0842L2.95396 11.0842L4.95396 11.0833ZM11.0487 226.081L13.0478 224.08L15.0487 226.079L15.0496 228.079L11.0496 228.081L11.0487 226.081Z" fill="#778D9F"/>
<path d="M382.957 16.9167L384.957 16.9158L382.957 18.9167L384.958 20.9158L385.043 213.916L383.043 213.917L382.958 20.9167L380.957 18.9176L382.957 16.9167ZM370.95 2.92202L370.951 4.92202L26.9513 5.0736L25.9518 6.07404L24.9513 5.07448L20.9513 5.07624L18.9522 7.07712L16.9513 5.07801L16.9504 3.07801L18.9513 5.07712L20.9504 3.07624L24.9504 3.07448L25.9509 4.07404L26.9504 3.0736L370.95 2.92202ZM371.049 225.922L371.05 227.922L369.05 227.923L367.049 225.924L365.05 227.925L17.0496 228.078L17.0487 226.078L365.049 225.925L367.048 223.924L369.049 225.923L371.049 225.922ZM3.04341 214.084L3.04165 210.084L4.04121 209.084L3.04077 208.084L2.9566 17.0842L4.9566 17.0833L5.04077 208.083L6.04121 209.083L5.04165 210.083L5.04341 214.083L3.04341 214.084Z" fill="#6D4B27"/>
<path d="M378.955 12.7685L378.955 13.0685L379.045 217.768L379.045 218.068L379.047 221.918L375.197 221.92L374.897 221.92L13.1969 222.08L12.8969 222.08L9.04694 222.082L9.04524 218.231L9.04511 217.932L8.95491 13.2315L8.95478 12.9315L8.95308 9.08153L12.8031 9.07983L13.1031 9.0797L374.803 8.92032L375.103 8.92019L378.953 8.91849L378.955 12.7685ZM374.954 10.9203L362.954 10.9255L360.955 12.9264L358.954 10.9273L12.954 11.0798L10.954 11.0806L10.9548 13.0806L10.9584 21.0806L11.9588 22.0802L10.9592 23.0806L11.0452 218.081L11.0461 220.081L13.0461 220.08L375.046 219.92L377.046 219.919L377.045 217.919L377.04 205.919L376.039 204.92L377.039 203.919L376.955 12.9194L376.954 10.9194L374.954 10.9203Z" fill="#A3703A"/>
<path d="M374.954 10.9203L376.955 12.9194L377.039 203.919L376.039 204.92L377.04 205.919L377.045 217.919L375.046 219.92L13.0461 220.08L11.0452 218.081L10.9592 23.0806L11.9588 22.0802L10.9584 21.0806L10.9548 13.0806L12.954 11.0798L358.954 10.9273L360.955 12.9264L362.954 10.9255L374.954 10.9203Z" fill="#FFF1D2"/>
<path d="M374.954 10.9203L376.954 10.9194L376.955 12.9194L374.954 10.9203ZM377.045 217.919L377.046 219.919L375.046 219.92L377.045 217.919ZM13.0461 220.08L11.0461 220.081L11.0452 218.081L13.0461 220.08ZM10.9548 13.0806L10.954 11.0806L12.954 11.0798L10.9548 13.0806Z" fill="#D2C6AC"/>
</svg>
