<svg width="436" height="242" viewBox="0 0 436 242" fill="none" xmlns="http://www.w3.org/2000/svg">
<path d="M428 11.85C428 11.3833 428.2 10.95 428.6 10.55L430 9.15V6H426.85L425.45 7.4C425.05 7.8 424.617 8 424.15 8H423.85C423.383 8 422.967 7.8 422.6 7.4L420.6 5.4C420.2 5.03333 420 4.56667 420 4V2C420 1.43333 420.2 0.95 420.6 0.55C420.967 0.183333 421.433 0 422 0H434C434.567 0 435.05 0.183333 435.45 0.55C435.817 0.95 436 1.43333 436 2V14C436 14.5667 435.817 15.0333 435.45 15.4C435.05 15.8 434.567 16 434 16H432C431.433 16 430.967 15.8 430.6 15.4L428.6 13.4C428.2 13.0333 428 12.6167 428 12.15V11.85ZM426 4H430L432 6V10L430 12L432 14H434V10V2H426H422V4L424 6L426 4ZM432 226H434C434.567 226 435.05 226.2 435.45 226.6C435.817 226.967 436 227.433 436 228V240C436 240.567 435.817 241.05 435.45 241.45C435.05 241.817 434.567 242 434 242H422C421.433 242 420.967 241.817 420.6 241.45C420.2 241.05 420 240.567 420 240V238C420 237.433 420.2 236.967 420.6 236.6L422.6 234.6C422.967 234.2 423.383 234 423.85 234H424.15C424.617 234 425.05 234.2 425.45 234.6L426.85 236H430V232.85L428.6 231.45C428.2 231.05 428 230.617 428 230.15V229.85C428 229.383 428.2 228.967 428.6 228.6L430.6 226.6C430.967 226.2 431.433 226 432 226ZM434 232V228H432L430 230L432 232V236L430 238H426L424 236L422 238V240H426H434V232ZM16 240C16 240.567 15.8 241.05 15.4 241.45C15.0333 241.817 14.5667 242 14 242H2C1.43333 242 0.95 241.817 0.55 241.45C0.183333 241.05 0 240.567 0 240V228C0 227.433 0.183333 226.967 0.55 226.6C0.95 226.2 1.43333 226 2 226H4C4.56667 226 5.03333 226.2 5.4 226.6L7.4 228.6C7.8 228.967 8 229.383 8 229.85V230.15C8 230.617 7.8 231.05 7.4 231.45L6 232.85V236H9.15L10.55 234.6C10.95 234.2 11.3833 234 11.85 234H12.15C12.6167 234 13.0333 234.2 13.4 234.6L15.4 236.6C15.8 236.967 16 237.433 16 238V240ZM2 16C1.43333 16 0.949999 15.8 0.549999 15.4C0.183333 15.0333 0 14.5667 0 14V2C0 1.43333 0.183333 0.95 0.549999 0.55C0.949999 0.183333 1.43333 0 2 0H14C14.5667 0 15.0333 0.183333 15.4 0.55C15.8 0.95 16 1.43333 16 2V4C16 4.56667 15.8 5.03333 15.4 5.4L13.4 7.4C13.0333 7.8 12.6167 8 12.15 8H11.85C11.3833 8 10.95 7.8 10.55 7.4L9.15 6H6V9.15L7.4 10.55C7.8 10.95 8 11.3833 8 11.85V12.15C8 12.6167 7.8 13.0333 7.4 13.4L5.4 15.4C5.03333 15.8 4.56667 16 4 16H2ZM10 4L12 6L14 4V2H10H2V10V14H4L6 12L4 10V6L6 4H10ZM4 232L6 230L4 228H2V232V240H10H14V238L12 236L10 238H6L4 236V232Z" fill="#515F6B"/>
<path d="M424.15 8C424.617 8 425.05 7.8 425.45 7.4L426.85 6H430V9.15L428.6 10.55C428.2 10.95 428 11.3833 428 11.85V8H424.15ZM428 12.15C428 12.6167 428.2 13.0333 428.6 13.4L430.6 15.4C430.967 15.8 431.433 16 432 16L430 18L432 20V226C431.433 226 430.967 226.2 430.6 226.6L428.6 228.6C428.2 228.967 428 229.383 428 229.85V12.15ZM420 4C420 4.56667 420.2 5.03333 420.6 5.4L422.6 7.4C422.967 7.8 423.383 8 423.85 8H12.15C12.6167 8 13.0333 7.8 13.4 7.4L15.4 5.4C15.8 5.03333 16 4.56667 16 4L18 6L20 4H24L25 5L26 4H420ZM428 230.15C428 230.617 428.2 231.05 428.6 231.45L430 232.85V236H426.85L425.45 234.6C425.05 234.2 424.617 234 424.15 234H428V230.15ZM423.85 234C423.383 234 422.967 234.2 422.6 234.6L420.6 236.6C420.2 236.967 420 237.433 420 238H418L416 236L414 238H16C16 237.433 15.8 236.967 15.4 236.6L13.4 234.6C13.0333 234.2 12.6167 234 12.15 234H423.85ZM8 11.85C8 11.3833 7.8 10.95 7.4 10.55L6 9.15V6H9.15L10.55 7.4C10.95 7.8 11.3833 8 11.85 8H8V11.85ZM4 16C4.56667 16 5.03333 15.8 5.4 15.4L7.4 13.4C7.8 13.0333 8 12.6167 8 12.15V229.85C8 229.383 7.8 228.967 7.4 228.6L5.4 226.6C5.03333 226.2 4.56667 226 4 226V222L5 221L4 220V16ZM11.85 234C11.3833 234 10.95 234.2 10.55 234.6L9.15 236H6V232.85L7.4 231.45C7.8 231.05 8 230.617 8 230.15V234H11.85Z" fill="#B47B41"/>
<path d="M432 10V6L430 4H426V2H434V10H432ZM434 232V240H426V238H430L432 236V232H434ZM10 4H6L4 6V10H2V2H10V4ZM2 232H4V236L6 238H10V240H2V232Z" fill="#94AFC6"/>
<path d="M2 232V228H4L6 230L4 232H2ZM432 10H434V14H432L430 12L432 10ZM426 2V4L424 6L422 4V2H426ZM432 232L430 230L432 228H434V232H432ZM426 240H422V238L424 236L426 238V240ZM10 2H14V4L12 6L10 4V2ZM4 10L6 12L4 14H2V10H4ZM10 238L12 236L14 238V240H10V238Z" fill="#778D9F"/>
<path d="M432 16H434L432 18L434 20V226H432V20L430 18L432 16ZM420 2V4H26L25 5L24 4H20L18 6L16 4V2L18 4L20 2H24L25 3L26 2H420ZM420 238V240H418L416 238L414 240H16V238H414L416 236L418 238H420ZM2 226V222L3 221L2 220V16H4V220L5 221L4 222V226H2Z" fill="#6D4B27"/>
<path d="M428 11.85V12.15V229.85V230.15V234H424.15H423.85H12.15H11.85H8V230.15V229.85V12.15V11.85V8H11.85H12.15H423.85H424.15H428V11.85ZM424 10H412L410 12L408 10H12H10V12V20L11 21L10 22V230V232H12H424H426V230V218L425 217L426 216V12V10H424Z" fill="#A3703A"/>
<path d="M424 10L426 12V216L425 217L426 218V230L424 232H12L10 230V22L11 21L10 20V12L12 10H408L410 12L412 10H424Z" fill="#FFF1D2"/>
<path d="M424 10H426V12L424 10ZM426 230V232H424L426 230ZM12 232H10V230L12 232ZM10 12V10H12L10 12Z" fill="#D2C6AC"/>
</svg>
